<svg xmlns="http://www.w3.org/2000/svg" xmlns:xlink="http://www.w3.org/1999/xlink" version="1.1" class="marks" width="861" height="389" viewBox="0 0 861 389"><rect width="861" height="389" fill="#FBF7EF"/><g fill="none" stroke-miterlimit="10" transform="translate(90,36)"><g class="mark-group role-frame root" role="graphics-object" aria-roledescription="group mark container"><g transform="translate(0,0)"><path class="background" aria-hidden="true" d="M0.5,0.5h760v290h-760Z" stroke="#ddd"/><g><g class="mark-group role-axis" aria-hidden="true"><g transform="translate(0.5,0.5)"><path class="background" aria-hidden="true" d="M0,0h0v0h0Z" pointer-events="none"/><g><g class="mark-rule role-axis-grid" pointer-events="none"><line transform="translate(0,290)" x2="760" y2="0" stroke="#E9E1D5" stroke-width="1" opacity="1"/><line transform="translate(0,218)" x2="760" y2="0" stroke="#E9E1D5" stroke-width="1" opacity="1"/><line transform="translate(0,145)" x2="760" y2="0" stroke="#E9E1D5" stroke-width="1" opacity="1"/><line transform="translate(0,73)" x2="760" y2="0" stroke="#E9E1D5" stroke-width="1" opacity="1"/><line transform="translate(0,0)" x2="760" y2="0" stroke="#E9E1D5" stroke-width="1" opacity="1"/></g></g><path class="foreground" aria-hidden="true" d="" pointer-events="none" display="none"/></g></g><g class="mark-group role-axis" role="graphics-symbol" aria-roledescription="axis" aria-label="X-axis titled 'Simultaneous active decode requests' for a linear scale with values from 1 to 41"><g transform="translate(0.5,290.5)"><path class="background" aria-hidden="true" d="M0,0h0v0h0Z" pointer-events="none"/><g><g class="mark-rule role-axis-tick" pointer-events="none"><line transform="translate(0,0)" x2="0" y2="5" stroke="#D9D0C3" stroke-width="1" opacity="1"/><line transform="translate(76,0)" x2="0" y2="5" stroke="#D9D0C3" stroke-width="1" opacity="1"/><line transform="translate(171,0)" x2="0" y2="5" stroke="#D9D0C3" stroke-width="1" opacity="1"/><line transform="translate(266,0)" x2="0" y2="5" stroke="#D9D0C3" stroke-width="1" opacity="1"/><line transform="translate(361,0)" x2="0" y2="5" stroke="#D9D0C3" stroke-width="1" opacity="1"/><line transform="translate(456,0)" x2="0" y2="5" stroke="#D9D0C3" stroke-width="1" opacity="1"/><line transform="translate(551,0)" x2="0" y2="5" stroke="#D9D0C3" stroke-width="1" opacity="1"/><line transform="translate(646,0)" x2="0" y2="5" stroke="#D9D0C3" stroke-width="1" opacity="1"/><line transform="translate(741,0)" x2="0" y2="5" stroke="#D9D0C3" stroke-width="1" opacity="1"/></g><g class="mark-text role-axis-label" pointer-events="none"><text text-anchor="start" transform="translate(0,24)" font-family="Helvetica Neue" font-size="16px" fill="#5E5A55" opacity="1">1</text><text text-anchor="middle" transform="translate(76,24)" font-family="Helvetica Neue" font-size="16px" fill="#5E5A55" opacity="1">5</text><text text-anchor="middle" transform="translate(171,24)" font-family="Helvetica Neue" font-size="16px" fill="#5E5A55" opacity="1">10</text><text text-anchor="middle" transform="translate(266,24)" font-family="Helvetica Neue" font-size="16px" fill="#5E5A55" opacity="1">15</text><text text-anchor="middle" transform="translate(361,24)" font-family="Helvetica Neue" font-size="16px" fill="#5E5A55" opacity="1">20</text><text text-anchor="middle" transform="translate(456,24)" font-family="Helvetica Neue" font-size="16px" fill="#5E5A55" opacity="1">25</text><text text-anchor="middle" transform="translate(551,24)" font-family="Helvetica Neue" font-size="16px" fill="#5E5A55" opacity="1">30</text><text text-anchor="middle" transform="translate(646,24)" font-family="Helvetica Neue" font-size="16px" fill="#5E5A55" opacity="1">35</text><text text-anchor="middle" transform="translate(741,24)" font-family="Helvetica Neue" font-size="16px" fill="#5E5A55" opacity="1">40</text></g><g class="mark-rule role-axis-domain" pointer-events="none"><line transform="translate(0,0)" x2="760" y2="0" stroke="#888" stroke-width="1" opacity="1"/></g><g class="mark-text role-axis-title" pointer-events="none"><text text-anchor="middle" transform="translate(380,51)" font-family="Helvetica Neue" font-size="18px" font-weight="bold" fill="#3F3A36" opacity="1">Simultaneous active decode requests</text></g></g><path class="foreground" aria-hidden="true" d="" pointer-events="none" display="none"/></g></g><g class="mark-group role-axis" role="graphics-symbol" aria-roledescription="axis" aria-label="Y-axis titled 'Share of decode-active time' for a linear scale with values from 0% to 100%"><g transform="translate(0.5,0.5)"><path class="background" aria-hidden="true" d="M0,0h0v0h0Z" pointer-events="none"/><g><g class="mark-rule role-axis-tick" pointer-events="none"><line transform="translate(0,290)" x2="-5" y2="0" stroke="#D9D0C3" stroke-width="1" opacity="1"/><line transform="translate(0,218)" x2="-5" y2="0" stroke="#D9D0C3" stroke-width="1" opacity="1"/><line transform="translate(0,145)" x2="-5" y2="0" stroke="#D9D0C3" stroke-width="1" opacity="1"/><line transform="translate(0,73)" x2="-5" y2="0" stroke="#D9D0C3" stroke-width="1" opacity="1"/><line transform="translate(0,0)" x2="-5" y2="0" stroke="#D9D0C3" stroke-width="1" opacity="1"/></g><g class="mark-text role-axis-label" pointer-events="none"><text text-anchor="end" transform="translate(-11,295)" font-family="Helvetica Neue" font-size="16px" fill="#5E5A55" opacity="1">0%</text><text text-anchor="end" transform="translate(-11,222.5)" font-family="Helvetica Neue" font-size="16px" fill="#5E5A55" opacity="1">25%</text><text text-anchor="end" transform="translate(-11,150)" font-family="Helvetica Neue" font-size="16px" fill="#5E5A55" opacity="1">50%</text><text text-anchor="end" transform="translate(-11,77.5)" font-family="Helvetica Neue" font-size="16px" fill="#5E5A55" opacity="1">75%</text><text text-anchor="end" transform="translate(-11,5)" font-family="Helvetica Neue" font-size="16px" fill="#5E5A55" opacity="1">100%</text></g><g class="mark-text role-axis-title" pointer-events="none"><text text-anchor="middle" transform="translate(-63.68800354003906,145) rotate(-90) translate(0,-4)" font-family="Helvetica Neue" font-size="18px" font-weight="bold" fill="#3F3A36" opacity="1">Share of decode-active time</text></g></g><path class="foreground" aria-hidden="true" d="" pointer-events="none" display="none"/></g></g><g class="mark-group role-scope pathgroup" role="graphics-object" aria-roledescription="group mark container"><g transform="translate(0,0)"><path class="background" aria-hidden="true" d="M0,0h760v290h-760Z"/><g><g class="mark-line role-mark marks" role="graphics-object" aria-roledescription="line mark container"><path aria-label="Simultaneous active decode requests: 1; Share of decode-active time: 100%; workload: Linear workload" role="graphics-symbol" aria-roledescription="line mark" d="M0,0L19,66.575L38,159.94L57,210.82L76,251.108L95,281.364" stroke="#355C7D" stroke-width="2.9"/></g></g><path class="foreground" aria-hidden="true" d="" display="none"/></g><g transform="translate(0,0)"><path class="background" aria-hidden="true" d="M0,0h760v290h-760Z"/><g><g class="mark-line role-mark marks" role="graphics-object" aria-roledescription="line mark container"><path aria-label="Simultaneous active decode requests: 1; Share of decode-active time: 100%; workload: DAG workload" role="graphics-symbol" aria-roledescription="line mark" d="M0,0L19,13.879L38,31.636L57,46.844L76,66.237L95,82.809L114,91.755L133,97.673L152,103.344L171,111.617L190,129.32L209,150.373L228,172.012L247,191.607L266,203.847L285,217.118L304,227.151L323,235.497L342,242.493L361,246.025L380,251.421L399,257.904L418,260.707L437,266.923L456,273.337L475,277.131L494,277.174L513,277.219L532,277.62L551,280.244L570,281.195L589,286.082L608,286.254L627,287.5L646,288.372L665,288.375L684,288.383L703,288.413L722,288.431L741,289.913L760,289.97" stroke="#E7865A" stroke-width="2.9"/></g></g><path class="foreground" aria-hidden="true" d="" display="none"/></g></g><g class="mark-group role-legend" role="graphics-symbol" aria-roledescription="legend" aria-label="Symbol legend for stroke color with 2 values: Linear workload, DAG workload"><g transform="translate(0,-28)"><path class="background" aria-hidden="true" d="M0,0h259v17h-259Z" pointer-events="none"/><g><g class="mark-group role-legend-entry"><g transform="translate(0,0)"><path class="background" aria-hidden="true" d="M0,0h0v0h0Z" pointer-events="none"/><g><g class="mark-group role-scope" role="graphics-object" aria-roledescription="group mark container"><g transform="translate(0,0.25)"><path class="background" aria-hidden="true" d="M0,0h127.93499755859375v16.5h-127.93499755859375Z" pointer-events="none" opacity="1"/><g><g class="mark-symbol role-legend-symbol" pointer-events="none"><path transform="translate(8.5,8.5)" d="M-6.708,0L6.708,0" stroke="#355C7D" stroke-width="3" opacity="1"/></g><g class="mark-text role-legend-label" pointer-events="none"><text text-anchor="start" transform="translate(21,13.5)" font-family="Helvetica Neue" font-size="15px" fill="#4A4540" opacity="1">Linear workload</text></g></g><path class="foreground" aria-hidden="true" d="" pointer-events="none" display="none"/></g><g transform="translate(140,0.25)"><path class="background" aria-hidden="true" d="M0,0h118.48500061035156v16.5h-118.48500061035156Z" pointer-events="none" opacity="1"/><g><g class="mark-symbol role-legend-symbol" pointer-events="none"><path transform="translate(8.5,8.5)" d="M-6.708,0L6.708,0" stroke="#E7865A" stroke-width="3" opacity="1"/></g><g class="mark-text role-legend-label" pointer-events="none"><text text-anchor="start" transform="translate(21,13.5)" font-family="Helvetica Neue" font-size="15px" fill="#4A4540" opacity="1">DAG workload</text></g></g><path class="foreground" aria-hidden="true" d="" pointer-events="none" display="none"/></g></g></g><path class="foreground" aria-hidden="true" d="" pointer-events="none" display="none"/></g></g></g><path class="foreground" aria-hidden="true" d="" pointer-events="none" display="none"/></g></g></g><path class="foreground" aria-hidden="true" d="" display="none"/></g></g></g></svg>