<svg xmlns="http://www.w3.org/2000/svg" xmlns:xlink="http://www.w3.org/1999/xlink" version="1.1" class="marks" width="851" height="452" viewBox="0 0 851 452"><rect width="851" height="452" fill="#FBF7EF"/><g fill="none" stroke-miterlimit="10" transform="translate(79,29)"><g class="mark-group role-frame root" role="graphics-object" aria-roledescription="group mark container"><g transform="translate(0,0)"><path class="background" aria-hidden="true" d="M0.5,0.5h760v360h-760Z" stroke="#ddd"/><g><g class="mark-group role-axis" aria-hidden="true"><g transform="translate(0.5,0.5)"><path class="background" aria-hidden="true" d="M0,0h0v0h0Z" pointer-events="none"/><g><g class="mark-rule role-axis-grid" pointer-events="none"><line transform="translate(0,346)" x2="760" y2="0" stroke="#E9E1D5" stroke-width="1" opacity="1"/><line transform="translate(0,302)" x2="760" y2="0" stroke="#E9E1D5" stroke-width="1" opacity="1"/><line transform="translate(0,258)" x2="760" y2="0" stroke="#E9E1D5" stroke-width="1" opacity="1"/><line transform="translate(0,201)" x2="760" y2="0" stroke="#E9E1D5" stroke-width="1" opacity="1"/><line transform="translate(0,157)" x2="760" y2="0" stroke="#E9E1D5" stroke-width="1" opacity="1"/><line transform="translate(0,113)" x2="760" y2="0" stroke="#E9E1D5" stroke-width="1" opacity="1"/><line transform="translate(0,55)" x2="760" y2="0" stroke="#E9E1D5" stroke-width="1" opacity="1"/><line transform="translate(0,12)" x2="760" y2="0" stroke="#E9E1D5" stroke-width="1" opacity="1"/></g></g><path class="foreground" aria-hidden="true" d="" pointer-events="none" display="none"/></g></g><g class="mark-group role-axis" role="graphics-symbol" aria-roledescription="axis" aria-label="X-axis titled 'Total prompt tokens' for a linear scale with values from 0k to 105k"><g transform="translate(0.5,360.5)"><path class="background" aria-hidden="true" d="M0,0h0v0h0Z" pointer-events="none"/><g><g class="mark-rule role-axis-tick" pointer-events="none"><line transform="translate(0,0)" x2="0" y2="5" stroke="#D9D0C3" stroke-width="1" opacity="1"/><line transform="translate(145,0)" x2="0" y2="5" stroke="#D9D0C3" stroke-width="1" opacity="1"/><line transform="translate(290,0)" x2="0" y2="5" stroke="#D9D0C3" stroke-width="1" opacity="1"/><line transform="translate(434,0)" x2="0" y2="5" stroke="#D9D0C3" stroke-width="1" opacity="1"/><line transform="translate(579,0)" x2="0" y2="5" stroke="#D9D0C3" stroke-width="1" opacity="1"/><line transform="translate(724,0)" x2="0" y2="5" stroke="#D9D0C3" stroke-width="1" opacity="1"/></g><g class="mark-text role-axis-label" pointer-events="none"><text text-anchor="start" transform="translate(0,24)" font-family="Helvetica Neue" font-size="16px" fill="#5E5A55" opacity="1">0k</text><text text-anchor="middle" transform="translate(144.76190476190476,24)" font-family="Helvetica Neue" font-size="16px" fill="#5E5A55" opacity="1">20k</text><text text-anchor="middle" transform="translate(289.5238095238095,24)" font-family="Helvetica Neue" font-size="16px" fill="#5E5A55" opacity="1">40k</text><text text-anchor="middle" transform="translate(434.2857142857143,24)" font-family="Helvetica Neue" font-size="16px" fill="#5E5A55" opacity="1">60k</text><text text-anchor="middle" transform="translate(579.047619047619,24)" font-family="Helvetica Neue" font-size="16px" fill="#5E5A55" opacity="1">80k</text><text text-anchor="middle" transform="translate(723.8095238095237,24)" font-family="Helvetica Neue" font-size="16px" fill="#5E5A55" opacity="1">100k</text></g><g class="mark-rule role-axis-domain" pointer-events="none"><line transform="translate(0,0)" x2="760" y2="0" stroke="#888" stroke-width="1" opacity="1"/></g><g class="mark-text role-axis-title" pointer-events="none"><text text-anchor="middle" transform="translate(380,51)" font-family="Helvetica Neue" font-size="18px" font-weight="bold" fill="#3F3A36" opacity="1">Total prompt tokens</text></g></g><path class="foreground" aria-hidden="true" d="" pointer-events="none" display="none"/></g></g><g class="mark-group role-axis" role="graphics-symbol" aria-roledescription="axis" aria-label="Y-axis titled 'log TTFC (s)' for a log scale with values from 0.04 to 12"><g transform="translate(0.5,0.5)"><path class="background" aria-hidden="true" d="M0,0h0v0h0Z" pointer-events="none"/><g><g class="mark-rule role-axis-tick" pointer-events="none"><line transform="translate(0,346)" x2="-5" y2="0" stroke="#D9D0C3" stroke-width="1" opacity="1"/><line transform="translate(0,302)" x2="-5" y2="0" stroke="#D9D0C3" stroke-width="1" opacity="1"/><line transform="translate(0,258)" x2="-5" y2="0" stroke="#D9D0C3" stroke-width="1" opacity="1"/><line transform="translate(0,201)" x2="-5" y2="0" stroke="#D9D0C3" stroke-width="1" opacity="1"/><line transform="translate(0,157)" x2="-5" y2="0" stroke="#D9D0C3" stroke-width="1" opacity="1"/><line transform="translate(0,113)" x2="-5" y2="0" stroke="#D9D0C3" stroke-width="1" opacity="1"/><line transform="translate(0,55)" x2="-5" y2="0" stroke="#D9D0C3" stroke-width="1" opacity="1"/><line transform="translate(0,12)" x2="-5" y2="0" stroke="#D9D0C3" stroke-width="1" opacity="1"/></g><g class="mark-text role-axis-label" pointer-events="none"><text text-anchor="end" transform="translate(-11,350.91606905942575)" font-family="Helvetica Neue" font-size="16px" fill="#5E5A55" opacity="1">0.05</text><text text-anchor="end" transform="translate(-11,307.1673836720818)" font-family="Helvetica Neue" font-size="16px" fill="#5E5A55" opacity="1">0.1</text><text text-anchor="end" transform="translate(-11,263.41869828473784)" font-family="Helvetica Neue" font-size="16px" fill="#5E5A55" opacity="1">0.2</text><text text-anchor="end" transform="translate(-11,205.58608195681967)" font-family="Helvetica Neue" font-size="16px" fill="#5E5A55" opacity="1">0.5</text><text text-anchor="end" transform="translate(-11,161.83739656947571)" font-family="Helvetica Neue" font-size="16px" fill="#5E5A55" opacity="1">1</text><text text-anchor="end" transform="translate(-11,118.08871118213176)" font-family="Helvetica Neue" font-size="16px" fill="#5E5A55" opacity="1">2</text><text text-anchor="end" transform="translate(-11,60.256094854213565)" font-family="Helvetica Neue" font-size="16px" fill="#5E5A55" opacity="1">5</text><text text-anchor="end" transform="translate(-11,16.507409466869618)" font-family="Helvetica Neue" font-size="16px" fill="#5E5A55" opacity="1">10</text></g><g class="mark-text role-axis-title" pointer-events="none"><text text-anchor="middle" transform="translate(-52.13600158691406,180) rotate(-90) translate(0,-4)" font-family="Helvetica Neue" font-size="18px" font-weight="bold" fill="#3F3A36" opacity="1">log TTFC (s)</text></g></g><path class="foreground" aria-hidden="true" d="" pointer-events="none" display="none"/></g></g><g class="mark-group role-scope pathgroup" role="graphics-object" aria-roledescription="group mark container"><g transform="translate(0,0)"><path class="background" aria-hidden="true" d="M0,0h760v360h-760Z"/><g><g class="mark-line role-mark marks" role="graphics-object" aria-roledescription="line mark container"><path aria-label="Total prompt tokens: 2.502k; log TTFC (s): 0.057875; workload: Default prefix cache" role="graphics-symbol" aria-roledescription="line mark" d="M18.11,336.685L55.129,323.284L90.722,308.712L125.552,301.11L161.352,298.424L198.447,293.236L235.285,282.056L273.137,276.136L307.583,272.649L343.404,266.476L380.13,258.957L414.953,253.875L451.965,247.669L488.532,244.622L523.683,243.942L560.207,235.764L596.061,234.974L627.116,230.87L668.641,230.874L701.049,222.43L727.41,221.712" stroke="#355C7D" stroke-width="3"/></g></g><path class="foreground" aria-hidden="true" d="" display="none"/></g><g transform="translate(0,0)"><path class="background" aria-hidden="true" d="M0,0h760v360h-760Z"/><g><g class="mark-line role-mark marks" role="graphics-object" aria-roledescription="line mark container"><path aria-label="Total prompt tokens: 2.502k; log TTFC (s): 0.10714; workload: Prefix cache disabled" role="graphics-symbol" aria-roledescription="line mark" d="M18.11,297.815L55.133,229.755L90.722,195.734L125.552,170.317L161.352,149.368L198.461,131.981L235.238,117.186L273.137,104.915L307.489,94.087L343.357,84.481L380.04,74.717L414.917,66.195L451.9,58.125L488.445,50.668L523.517,43.857L560.127,37.144L596.025,30.923L627,26.036L668.38,19.555L700.861,14.442L727.295,10.659" stroke="#E7865A" stroke-width="3"/></g></g><path class="foreground" aria-hidden="true" d="" display="none"/></g></g><g class="mark-group role-legend" role="graphics-symbol" aria-roledescription="legend" aria-label="Symbol legend for stroke color with 2 values: Default prefix cache, Prefix cache disabled"><g transform="translate(0,-25)"><path class="background" aria-hidden="true" d="M0,0h332v17h-332Z" pointer-events="none"/><g><g class="mark-group role-legend-entry"><g transform="translate(0,0)"><path class="background" aria-hidden="true" d="M0,0h0v0h0Z" pointer-events="none"/><g><g class="mark-group role-scope" role="graphics-object" aria-roledescription="group mark container"><g transform="translate(0,0.25)"><path class="background" aria-hidden="true" d="M0,0h154.61997985839844v16.5h-154.61997985839844Z" pointer-events="none" opacity="1"/><g><g class="mark-symbol role-legend-symbol" pointer-events="none"><path transform="translate(8.5,8.5)" d="M-6.708,0L6.708,0" stroke="#355C7D" stroke-width="3" opacity="1"/></g><g class="mark-text role-legend-label" pointer-events="none"><text text-anchor="start" transform="translate(21,13.5)" font-family="Helvetica Neue" font-size="15px" fill="#4A4540" opacity="1">Default prefix cache</text></g></g><path class="foreground" aria-hidden="true" d="" pointer-events="none" display="none"/></g><g transform="translate(167,0.25)"><path class="background" aria-hidden="true" d="M0,0h164.89498901367188v16.5h-164.89498901367188Z" pointer-events="none" opacity="1"/><g><g class="mark-symbol role-legend-symbol" pointer-events="none"><path transform="translate(8.5,8.5)" d="M-6.708,0L6.708,0" stroke="#E7865A" stroke-width="3" opacity="1"/></g><g class="mark-text role-legend-label" pointer-events="none"><text text-anchor="start" transform="translate(21,13.5)" font-family="Helvetica Neue" font-size="15px" fill="#4A4540" opacity="1">Prefix cache disabled</text></g></g><path class="foreground" aria-hidden="true" d="" pointer-events="none" display="none"/></g></g></g><path class="foreground" aria-hidden="true" d="" pointer-events="none" display="none"/></g></g></g><path class="foreground" aria-hidden="true" d="" pointer-events="none" display="none"/></g></g></g><path class="foreground" aria-hidden="true" d="" display="none"/></g></g></g></svg>